<?xml version="1.0" standalone="no"?>
<!DOCTYPE svg PUBLIC "-//W3C//DTD SVG 20010904//EN"
 "http://www.w3.org/TR/2001/REC-SVG-20010904/DTD/svg10.dtd">
<svg version="1.0" xmlns="http://www.w3.org/2000/svg"
 width="260.000000pt" height="260.000000pt" viewBox="0 0 260.000000 260.000000"
 preserveAspectRatio="xMidYMid meet">
<metadata>
Created by potrace 1.14, written by Peter Selinger 2001-2017
</metadata>
<g transform="translate(0.000000,260.000000) scale(0.100000,-0.100000)"
fill="#000000" stroke="none">
<path d="M1483 1908 c-12 -13 -78 -117 -148 -233 -173 -285 -245 -395 -259
-395 -6 0 -28 4 -49 9 -35 8 -39 7 -48 -16 -17 -44 -11 -62 22 -70 l30 -8 -32
-45 c-108 -151 -196 -220 -280 -220 -52 0 -66 11 -75 58 -8 40 -18 40 -55 3
-86 -86 21 -184 165 -151 101 23 199 108 306 267 l55 82 148 1 c171 0 156 11
177 -127 29 -189 134 -265 275 -199 63 29 115 86 115 126 0 33 -15 47 -27 25
-17 -30 -77 -65 -111 -65 -46 0 -85 43 -105 117 -48 172 -62 741 -21 847 10
27 -58 21 -83 -6z m-64 -433 l1 -204 -36 -7 c-33 -6 -204 3 -212 11 -2 2 13
32 34 67 117 194 206 338 209 338 2 0 4 -92 4 -205z"/>
</g>
</svg>
